<svg width="128" height="64" viewBox="0 0 128 64" fill="none" xmlns="http://www.w3.org/2000/svg">
<path d="M84.6339 3.53187e-06C84.6339 5.51695 83.5393 10.9799 81.4127 16.0769C79.2861 21.1738 76.169 25.8051 72.2395 29.7062C68.31 33.6072 63.6451 36.7017 58.5109 38.813C53.3768 40.9242 47.8741 42.0108 42.3169 42.0108C36.7598 42.0108 31.2571 40.9242 26.1229 38.813C20.9888 36.7017 16.3238 33.6072 12.3943 29.7062C8.46485 25.8051 5.34781 21.1738 3.22118 16.0769C1.09456 10.9799 -4.8582e-07 5.51694 0 0L16.9268 1.76594e-06C16.9268 3.31017 17.5835 6.58792 18.8595 9.64611C20.1355 12.7043 22.0057 15.4831 24.3634 17.8237C26.7211 20.1643 29.5201 22.021 32.6005 23.2878C35.681 24.5545 38.9827 25.2065 42.3169 25.2065C45.6512 25.2065 48.9529 24.5545 52.0333 23.2878C55.1138 22.021 57.9128 20.1643 60.2705 17.8237C62.6282 15.4831 64.4984 12.7043 65.7744 9.64612C67.0504 6.58792 67.7071 3.31017 67.7071 3.53187e-06H84.6339Z" fill="#3E85F0"/>
<path d="M106.55 0.115736C106.55 8.50514 104.886 16.8124 101.652 24.5632C98.4179 32.314 93.6779 39.3565 87.7025 45.2887C81.7271 51.2209 74.6332 55.9266 66.8259 59.1371C59.0187 62.3476 50.6509 64 42.2004 64V46.7512C48.3692 46.7512 54.4777 45.545 60.177 43.2013C65.8763 40.8577 71.0549 37.4225 75.4169 33.092C79.779 28.7615 83.2392 23.6205 85.5999 17.9624C87.9606 12.3043 89.1757 6.24 89.1757 0.115736H106.55Z" fill="#3E85F0"/>
<path d="M128 3.53187e-06C128 11.5962 125.699 23.0789 121.229 33.7924C116.759 44.5059 110.207 54.2404 101.948 62.4402L89.3689 49.9522C95.9765 43.3924 101.218 35.6047 104.794 27.0339C108.37 18.4631 110.211 9.27698 110.211 3.53187e-06H128Z" fill="#3E85F0"/>
</svg>
